<?xml version="1.0" encoding="UTF-8"?>
<!DOCTYPE svg PUBLIC "-//W3C//DTD SVG 1.1//EN" "http://www.w3.org/Graphics/SVG/1.1/DTD/svg11.dtd">
<!-- Creator: CorelDRAW 2021 (64 Bit) -->
<svg xmlns="http://www.w3.org/2000/svg" xml:space="preserve" width="846.667mm" height="846.667mm" version="1.1" style="shape-rendering:geometricPrecision; text-rendering:geometricPrecision; image-rendering:optimizeQuality; fill-rule:evenodd; clip-rule:evenodd"
viewBox="0 0 84666.66 84666.66"
 xmlns:xlink="http://www.w3.org/1999/xlink"
 xmlns:xodm="http://www.corel.com/coreldraw/odm/2003">
 <defs>
  <style type="text/css">
   <![CDATA[
    .fil0 {fill:#201E1E}
   ]]>
  </style>
    <mask id="id0">
  <linearGradient id="id1" gradientUnits="userSpaceOnUse" x1="42610.78" y1="39104.53" x2="14736.66" y2="40354.91">
   <stop offset="0" style="stop-opacity:1; stop-color:white"/>
   <stop offset="1" style="stop-opacity:1; stop-color:white"/>
  </linearGradient>
     <rect style="fill:url(#id1)" x="4332.86" y="4540.96" width="76000.95" height="75584.76"/>
    </mask>
 </defs>
 <g id="Camada_x0020_1">
  <metadata id="CorelCorpID_0Corel-Layer"/>
  <g id="_2223473901952">
   <path class="fil0" style="mask:url(#id0)" d="M33548.62 5474.51c75.58,1080.02 830.34,3168.32 -1749.57,3949.7 -1608.47,487.16 -1945.07,-353.24 -2735.41,-1471.73 -539.37,-763.72 -569.74,-874.53 -669.45,-874.53 0,0 -1823.36,861.65 -1823.36,861.65 180.85,705.03 560.96,1723.46 412.36,2611.63 -152.69,913.26 -2277.42,2712.04 -3711.11,1469.35 -594.48,-515.4 -984.65,-952.75 -1462.77,-1438.21 0,0 -1774.73,1129.92 -1774.73,1129.92 694.96,1689.26 1785.73,2654.2 -135.38,4112.29 -2148.18,1630.22 -2710.84,-8.36 -3921.8,-736.51 0,0 -1462.87,1532.9 -1462.87,1532.9 783.51,1132.22 2136.33,2141.44 628.35,3951.06 -1758.35,2109.63 -2696.26,732.75 -4152.3,189.97 0,0 -1081.13,1708.79 -1081.13,1708.79 1250.97,1037.97 2567.03,1934.08 1638.16,3706.93 -1143.66,2183.67 -2050.34,1425.41 -4198.78,1078.31l-695.9 1889.12c528.87,304.11 1381.31,782.66 1807.74,1127.03 634.65,512.41 961.02,1078.14 630.39,2147.24 -688.57,2226.67 -1623.32,1965.64 -4038.33,1840.25l-326.12 1875.3c1320.58,524.35 3150.41,517.27 2939.2,2936.13 -194.4,2225.55 -1341.3,2178.89 -3332.7,2536.14 0,0 105.69,1879.39 105.69,1879.39 0,0 3321.96,-236.46 3329.8,2553.72 44.7,2153.82 -1319.63,2302.24 -2817.13,2947.22 0,0 478.21,2057.68 478.21,2057.68 2012.55,-120.62 3121.83,-539.88 3820.98,1794.69 545.85,1823.18 -700.08,2026.8 -2206.11,3213.45 -95.03,0 717.83,1822.58 717.83,1822.58 976.63,-278.09 1807.74,-499.62 2591.84,-380.79 794.68,120.62 1219.49,820.61 1542.28,1394.36 1131.29,2010.25 -258.04,2379.78 -1430.1,3735.93 0,0 1130.86,1618.54 1130.86,1618.54 1582.97,-756.81 2929.05,-1601.73 4201.34,85.13 1499.63,1987.9 286.28,2387.8 -778.99,3958.57 0,0 1430.88,1470.37 1430.88,1470.37 381.04,-309.22 1356.4,-964.95 1786.84,-1197.23 728.23,-392.9 1778.99,14.33 2470.54,705.29 291.57,291.31 477.27,563.34 583.9,824.28l17628.46 0c-13834.44,-1683.62 -24551.65,-13468.15 -24551.65,-27757.08 0,-15444.54 12520.26,-27964.8 27964.8,-27964.8 15444.53,0 27964.79,12520.26 27964.79,27964.8 0,14288.93 -10717.21,26073.46 -24551.65,27757.08l17659.68 0c164.81,-346.75 468.15,-709.38 966.74,-1100.24 1937.75,-1519.07 2820.72,-38.64 3946.46,734.38 0,0 894.57,-869.84 1410.57,-1335.85 -670.14,-1133.08 -2073.29,-2033.37 -973.22,-3706.67 1342.41,-2042.49 2440.35,-1443.24 4384.4,-482.05 318.78,-348.03 962.22,-1250.28 1142.12,-1706.06 -449.2,-409.96 -1165.58,-1043.76 -1499.96,-1500.82 -493.82,-675.17 -520.61,-1347.44 -71.83,-2166.69 1172.32,-2140.6 2138.46,-1523 4130.46,-1009.99l778.47 -1763.04c-962.3,-603.01 -2904.73,-1369.03 -2235.45,-3375.36 927.59,-2780.53 2374.5,-2026.97 3977.08,-1859.6l409.2 -1945.93c-1611.71,-553.36 -3021.51,-997.71 -2809.96,-2980.49 230.23,-2155.44 1640.46,-2146.74 3372.28,-2386.1l-5.46 -1991.74c-1936.38,-283.88 -3220.27,-275.27 -3306.34,-2448.19 -110.3,-1044.28 130.6,-1709.47 832.98,-2091.38 421.48,-228.86 1594.83,-706.48 2067.57,-811.06l-385.57 -1962.9c-2186.31,18.42 -3167.81,377.8 -3818.75,-1923.07 -582.79,-2059.82 1079.76,-2358.38 2281.08,-3259.35l-764.06 -1866.51c-2342.42,419.26 -2995.67,1093.33 -4144.78,-1045.73 -1028.08,-1914.03 332.85,-2471.06 1583.31,-3721.77 0,0 -1096.57,-1618.11 -1096.57,-1660.51 -1736.86,715.61 -2778.07,1492.46 -4368.8,-367.74 -1423.19,-1775.58 19.71,-2782.84 883.06,-3836.08 -24.57,29.77 -1367.41,-1431.55 -1367.41,-1431.55 -1279.2,769.26 -2493.15,2052.64 -4381.67,406.21 -1567.1,-1422.34 -590.81,-2349.75 165.83,-3747.44 0,0 -1212.5,-896.62 -1776.35,-1210.88 -753.82,732.07 -1671.86,2631.6 -3997.39,1341.9 -1912.32,-897.56 -1220.85,-2211.91 -713.21,-3947.48l-1834.79 -800.57c-330.89,493.65 -1092.47,3026.64 -3667.34,2166.53 -2314.44,-687.63 -1859.86,-2128.14 -1610.35,-3811l-2002.15 -386.25c-171.29,505.33 -420.54,3096.92 -3027.57,2805.95 -2026.55,-226.05 -2126.95,-1435.05 -2435.15,-3351.21l-2151.43 -12.88c-241.15,2377.82 -565.81,3233.41 -2498.86,3372.03 -2635.44,188.94 -2411.09,-1595.85 -2874.88,-2826.52 0,0 -2351.89,387.79 -2369.89,387.79zm-12256.85 64615.91c417.48,1021.93 -378.83,1874.54 -793.4,3050.52 322.27,294.64 1366.21,986.19 1758.69,1116.62 1282.28,-1686.78 1973.06,-2408.53 3608.23,-1535.03 2335.77,1247.9 1261.63,2990.55 968.45,4086.19l1850.99 737.18c615.37,-854.9 1103.56,-2206.7 2247.13,-2358.45 637.22,-84.62 2521.65,191.16 2865.33,1548.5 65.17,257.36 90.59,715.35 97.84,1166.86l2672.04 0c438.28,-930.65 1028.24,-1474.38 2607.88,-1278.52 1016.55,125.99 1556.18,507.72 1843.4,1278.52l1315.11 0 8342.21 0c-56.81,-1177.61 278.68,-2176.16 1979.88,-2632.62 1935.87,-519.24 2464.32,1074.31 3272.05,2308.13l1863.11 -785.21c-329.1,-1549.79 -1317.93,-3024.08 1008.53,-4171.49 1968.2,-970.66 2848.61,767.04 3637.75,1611.54 347.1,-98.1 1368.35,-856.44 1726.02,-1073.88 -481.96,-1111.67 -1256.26,-2017.93 -756.81,-3068.86l-17659.68 0c-1118.83,136.15 -2257.54,207.71 -3413.14,207.71 -1155.6,0 -2294.31,-71.56 -3413.15,-207.71l-17628.46 0zm12603.26 7812.39c10.41,652.66 -16.97,1291.75 -16.97,1291.75l2025.18 388.38c255.91,-629.62 440.16,-1205.16 663.83,-1680.13l-2672.04 0zm7123.32 0c76.17,204.39 134.6,435.9 179.47,697.44 169.59,690.36 226.82,1469.34 226.82,1469.34 0,0 2025.61,55.88 2025.61,55.88 44.95,-753.83 65.09,-1572.65 382.16,-2222.66l-2814.06 0zm2814.06 0c293.18,-601.13 840.32,-1057.76 1896.28,-1184.6 1598.92,-192.19 2286.81,413.55 2654.12,1184.6l2292.86 0c20.22,420.03 90.34,862.84 166.26,1311.96l-1931.26 413.98c-159.78,-495.44 -256.25,-1155.86 -527.86,-1725.94m-35563.84 -24765.85l-2077.81 248.58 782.48 -344.8c-406.64,-185.62 -741.71,-421.65 -1007.34,-707.76 -265.72,-286.02 -449.12,-610.94 -550.55,-974.58 -66.62,-239.02 -82.32,-484.95 -46.49,-738.9 35.06,-252.75 121.39,-496.55 258.98,-730.19 158.15,-277.58 355.72,-512.16 593.97,-703.24 239.19,-191.25 500.38,-326.46 783.68,-405.36 391.96,-109.27 773.86,-126.08 1144.68,-49.9 370.89,76.17 701.27,238.59 991.22,487.25 193.38,166.77 355.8,359.21 488.61,577.76 133.5,217.35 238.08,463.79 314.86,739.15 69.94,250.87 95.79,495.01 77.79,733.52 -18.08,238.42 -81.04,474.62 -190.05,708.86l523.76 33.53 -1489.22 731.04c148,-177.51 245.67,-365.26 292.5,-564.27 47.09,-199.1 42.14,-398.28 -13.31,-597.21 -64.23,-230.4 -183.14,-395.72 -356.48,-498.43 -174.36,-102.53 -371.06,-122.49 -591.66,-61.07 -233.22,65.08 -403.91,206.6 -513.01,424.98 -109.36,217.52 -127.87,458.16 -54.68,720.81 44.87,160.71 120.02,320.39 224.43,479.23 105.18,157.55 243.03,321.93 413.64,491zm5329.81 6269.86l-613.33 -398.03 -2755.37 -550.37 -1066.03 968.53 86.07 826.5 -1681.32 -3274.78 662.8 442.12 1335.51 -360.14 1157.64 -2521.22 -147.91 -641.73 1780.78 2563.86 -561.8 -285.59 -1164.9 1609.67 1713.06 -210.7 -33.19 -588.76 1287.99 2420.64zm2699.08 5692.52l-1712.12 1203.29 525.81 -674.49c-445.97,29.26 -852.95,-19.96 -1222.48,-146.13 -369.45,-126.07 -684.81,-325.26 -946.35,-597.46 -171.97,-179.05 -302.32,-388.13 -391.03,-628.68 -88.8,-239.36 -128.21,-494.85 -117.8,-765.85 7.84,-319.38 70.71,-619.56 190.05,-900.63 120.02,-281.84 286.11,-524.53 498.09,-728.23 293.52,-281.93 621.94,-477.53 984.48,-586.12 362.79,-108.59 730.7,-122.07 1103.9,-40.52 249.34,55.36 483.5,147.83 703.92,277.49 220.43,128.21 429.42,295.66 627.41,501.84 180.5,187.84 318.86,390.52 415.93,609.15 97.08,218.54 153.55,456.28 168.48,714.32l477.1 -218.54 -965.29 1349.15c46.32,-226.48 43.33,-438.03 -9.56,-635.51 -52.88,-197.56 -151.58,-370.72 -294.72,-519.58 -165.66,-172.48 -348.72,-261.71 -550.03,-270.15 -202.08,-7.68 -384.8,67.81 -549.95,226.39 -174.61,167.79 -257.87,373.37 -250.53,617.43 6.65,243.28 104.32,464.04 293.27,660.67 115.58,120.27 257.44,225.28 424.64,315.7 167.28,88.97 366.46,168.48 596.78,236.46zm3931.87 6074.34l-51.27 -600.44 -3406.58 -2160.39 669.8 5.55 2091.72 -2678 -520.18 -668.69 2556.53 1433.68 -943.19 7.94 -1180.68 2525.82 1183.83 178.79 736.51 -441.7 -1136.49 2397.44zm5998.5 2411.18l-3481.81 -1167.54 748.11 -168.39 1626.56 -2920.52 -627.32 -1157.9 3162.27 1741.2 -1379.27 -194.49 -655.64 2953.87 607.1 913.77zm8507.36 -1979.03l-494.42 114.65 -1109.02 3342.68 611.96 386.59 -1553.79 -165.06 -1564.03 -3427.3 218.54 2884.86 694.71 569.74 -3212.08 -916.92 560.95 -243.97 814.39 -3188.71 -655.56 -419.44 2525.23 111.67 893.72 3558.67 267.42 -2893.65 -414.4 -407.58 2416.38 693.77zm7028.37 1425.75l-426.18 434.79 229.98 1543.56c-321.25,255.14 -656.83,448.61 -1005.55,581.51 -349.74,131.79 -717.91,204.22 -1105.36,217.27 -315.11,10.49 -622.71,-24.91 -921.7,-106.54 -298.98,-81.55 -574.94,-204.56 -828.8,-371.24 -334.3,-221.88 -594.73,-490.92 -781.46,-807.4 -187.75,-317.41 -287.73,-657.09 -299.93,-1020.05 -11.43,-339.68 57.5,-653.42 205.67,-939.36 148.17,-285.85 368,-530.5 659.39,-733.77 272.54,-190.31 576.22,-335.84 911.63,-437.69 335.59,-101.94 702.13,-158.92 1101.86,-172.31 295.92,-9.98 577.67,16.12 844.42,77.54 267.76,61.16 512.16,155.76 733.18,283.71l131.96 -406.47 286.11 1608.9c-266.49,-297.36 -533.4,-513.43 -801.6,-648.98 -267.08,-134.61 -551.14,-197.31 -851.15,-187.24 -404.59,13.65 -725.5,158.66 -963.58,434.45 -238.08,276.64 -350.17,636.7 -335.41,1079 13.22,393.5 137.85,708.95 374.9,946.43 236.89,237.4 538.01,350.43 903.02,338.14 8.19,-0.25 33.52,-2.13 75.15,-6.57 41.55,-4.52 77.03,-8.7 106.46,-11.85l233.22 -875.04 -625.95 92.3 -181.96 372.6 -141.43 -1819.43 321.25 414.75 2151.86 118.99zm9376.33 -2832.23l-257.7 551.49 728.92 1379.86c-218.38,347.27 -470.88,641.05 -755.79,882.12 -286.19,240.38 -609.49,430.78 -970.58,571.61 -293.78,114.48 -595.84,183.06 -904.89,205.33 -309.14,22.18 -610.26,-2.31 -905.15,-75.24 -388.81,-98.53 -723.8,-265.97 -1004.96,-502.52 -282.43,-237.14 -489.38,-524.44 -621.34,-862.84 -123.35,-316.64 -162.59,-635.42 -117.55,-954.46 44.95,-318.77 171.2,-622.45 378.66,-910.78 193.98,-270.06 432.14,-508.06 714.84,-715.43 282.78,-207.46 609.66,-382.84 982.26,-528.03 275.79,-107.56 550.29,-176.32 822.32,-207.03 272.89,-31.05 534.85,-22.86 785.82,24.57l-10.41 -427.37 803.72 1422.94c-350.08,-192.1 -673.55,-307.43 -971.51,-346.33 -296.6,-38.3 -585.44,-3.24 -865.06,105.78 -377.3,146.97 -631.84,390.34 -765,729.34 -132.81,340.02 -119.17,716.97 41.54,1129.24 142.97,366.89 365.27,623.14 667.59,768.49 302.31,145.27 623.82,152.1 964.09,19.45 7.59,-2.98 30.97,-13.22 68.67,-31.13 37.7,-18.09 69.86,-33.78 96.56,-46.41l-70.2 -902.93 -559.93 294.72 -48.03 411.76 -737.01 -1669.47 440.67 284.75 2069.45 -601.48zm3552.53 -1755.87c73.7,-8.62 146.64,-25.42 216.41,-50.08 70.46,-23.8 129.49,-53.05 178.54,-87.86 67.99,-48.19 101.43,-129.32 99.55,-242.77 -1.87,-113.45 -36.59,-218.63 -105.43,-315.71 -85.31,-120.36 -199.87,-197.39 -342.92,-231.94 -143.74,-34.03 -326.54,-27.8 -548.5,19.79l502.35 908.57zm3764.76 -126.08l-1240.3 1703.16 -66.62 -505.34 -1715.45 -468.22c-39.75,23.11 -82.23,45.8 -126.59,66.11 -45.04,20.64 -91.02,41.96 -139.3,63.72l683.96 814.64 889.03 96.48 -2219.16 1228.79 170.27 -486.23 -1532.04 -2912.33 -1004.19 210.96 1715.02 -1537.08c129.66,-119.51 242.94,-218.55 339.67,-298.39 96.82,-79.84 185.62,-147.91 265.29,-204.39 492.03,-349.05 937.31,-512.67 1335.08,-491.77 397.77,20.9 735.48,227.85 1013.83,620.5 231.34,326.03 311.01,668.69 239.1,1027.9 -71.23,358.53 -294.04,728.66 -666.73,1110.3l2059.13 -38.81zm1411.08 -6034.08c21.5,101 56.48,195.34 104.33,282.1 48.54,87.52 108.51,166.17 179.65,234.5 129.23,124.03 287.21,181.26 475.56,173.16 187.67,-7.42 346.67,-79.07 476.33,-214.11 101.43,-105.69 169.33,-233.73 203.71,-384.12 34.29,-150.3 26.44,-289.01 -22.27,-416.11 -276.89,-67.05 -536.04,-73.27 -778.21,-18 -242.78,54.6 -455.52,169.16 -639.1,342.58zm2691.14 -557.11c155,148.68 281.25,306.49 377.38,473.68 96.99,167.8 164.64,345.57 204.56,534.77 82.92,399.73 57.58,814.05 -77.54,1244.14 -135.2,428.74 -359.13,806.03 -671.93,1131.97 -166.34,173.17 -344.8,315.03 -536.05,424.64 -190.65,110.38 -391.88,187.93 -603.26,233.22 -374.65,80.27 -738.3,72.59 -1090.6,-23.12 -353.15,-96.39 -663.23,-272.88 -931.08,-529.98 -204.73,-196.54 -361.94,-423.62 -471.47,-679.61 -108.93,-256.94 -164.8,-530.67 -167.96,-822.66 -5.89,-361.18 58.94,-712.11 195.86,-1053.07 136.22,-341.72 333.53,-647.19 592.17,-916.58 162.76,-169.5 335.5,-306.92 518.3,-413.46 184.17,-106.72 376.19,-181.87 578.18,-224.78 360.32,-77.2 729.17,-60.31 1103.4,52.21 375.76,112.51 702.04,301.63 980.04,568.63zm1965.56 -7357.22l-27.13 1206.7c349.83,-167.71 692.66,-250.36 1031.23,-248.32 338.48,1.97 653.84,86.84 944.3,254.97 149.71,86.67 280.14,190.32 392.65,312.98 111.41,122.07 202.77,260.77 272.63,416.28 175.81,390.94 246.44,823.26 213.09,1297.54 -33.53,474.37 -165.49,911.64 -397.34,1312.3 -139.56,241.24 -324.5,446.91 -554.73,619.39 -230.23,172.31 -488.02,297.02 -774.04,374.82 -285.68,73.19 -570.93,92.81 -853.2,58.69 -283.8,-33.78 -544.23,-119.77 -781.12,-256.85 -317.92,-183.91 -560.7,-449.03 -727.72,-796.05 -166.17,-346.5 -261.37,-781.2 -283.72,-1305.47l-756.21 985.93 972.46 -2363.06c45.55,366.12 138.87,682.25 279.45,949.25 140.92,266.14 315.62,460.12 525.98,581.85 206.09,119.17 418.07,149.02 634.57,89.82 216.92,-60.22 385.99,-193.98 506.27,-401.77 110.55,-191.17 131.45,-391.71 60.82,-600.71 -70.2,-209.93 -213.94,-377.72 -430.61,-503.11 -148.68,-86.08 -306.58,-136.23 -473,-151.42 -166,-13.82 -339.08,7.17 -519.07,64.07l744.44 -1897.83zm2915.82 -2697.62c-36.76,-289.09 -128.21,-540.56 -273.48,-754.25 -146.29,-214.02 -310.16,-346.24 -494.33,-397.59 -106.8,-29.77 -191.93,-31.4 -253.09,-5.12 -62.27,25.93 -104.84,80.61 -128.3,164.89 -16.12,57.83 -22.95,116.1 -21.92,176.66 2.13,60.82 13.05,131.37 33.52,213.17l1137.6 602.24zm-2079.6 1276.99l359.98 -2272.81c34.29,-214.29 62.01,-370.31 81.46,-470.54 19.28,-99.12 36.94,-177.68 53.06,-235.52 162.85,-584.07 436.07,-995.74 818.91,-1236.55 382.59,-239.79 839.04,-285.77 1369.2,-137.94 477.27,132.99 823.69,386.94 1038.9,762.78 215.31,375.68 256.94,798.18 126.17,1267.69 -74.3,266.49 -182.55,499.28 -323.9,699.66 -141.17,199.35 -309.56,356.22 -506.61,468.23l1071.83 103.3 832.73 -782.74 -1077.81 2817.21 -174.44 -483.75 -3023.05 -1294.73 -646.43 795.71zm-58067.2 -18127.83c-35.06,-289.17 -125.05,-541.33 -269.05,-755.78 -145.1,-214.88 -308.2,-348.12 -492.02,-400.5 -106.72,-30.45 -191.85,-32.5 -253.18,-6.57 -62.27,25.59 -105.27,80.02 -129.24,164.13 -16.46,57.75 -23.63,115.92 -22.86,176.49 1.79,60.82 12.2,131.62 32.33,213.34l1134.02 608.89zm-2087.11 1264.88l373.29 -2270.6c35.57,-214.11 64.23,-370.04 84.28,-470.1 19.7,-99.13 37.87,-177.52 54.34,-235.27 166.17,-583.05 441.86,-993.18 826.15,-1231.69 383.95,-237.57 840.58,-280.9 1369.97,-130 476.33,135.8 821.3,391.79 1034.38,768.83 213.09,377.04 252.33,799.63 118.75,1268.37 -75.84,266.06 -185.37,498.26 -327.91,697.87 -142.28,198.33 -311.61,354.35 -509.26,465.16l1071.07 109.52 837.42 -777.87 -1094.18 2810.9 -171.8 -484.78 -3015.38 -1312.3 -651.12 791.96zm7068.55 -11306.32l1574.1 1215.74 -2634.08 4146.58 253.27 -1341.48 -3065.45 -1234.84 -693.68 558.73 2053.24 -4206.2 1331.66 429.5 -676.79 170.35 -711.77 1249.09 679.78 642.24 305.13 -1007.59 -254.8 -497.49 1845.19 928.01 -606.25 25.59 -559.5 727.38 660.67 795.79 1039.59 -1376.02 -540.31 -1225.38zm3442.23 -3514.06c79.5,-295.49 95.54,-565.73 49.48,-809.27 -45.98,-243.62 -152.87,-445.36 -320.74,-605.56 -146.47,-139.9 -315.54,-233.73 -508.15,-281.08 -192.53,-47.25 -404.77,-47.34 -636.87,-2.98l1416.28 1698.89zm-2652.58 -811.48l-953.52 213.59 2370.83 -2008.37c433.93,-366.38 885.96,-549.69 1356.49,-551.99 469.85,-1.63 895,179.13 1276.3,542.95 473.86,452.28 687.71,976.97 641.22,1573.84 -46.49,598.4 -349.57,1234.42 -908.82,1908.65l-1419.61 1699.84 540.48 -1257.54 -2903.37 -2120.97zm9393.65 -5571.57l-952.66 -823.77 383.77 1470.79 568.89 -647.02zm2938.52 280.39l-1849.97 1995.92 130.69 -1103.82 -491.35 -477.78 -800.23 546.96 141.52 806.11 527.6 74.05 -2347.71 1586.46 341.3 -787.26 -983.54 -3540.59 -617.6 -32.67 3095.48 -1650.01 -562.06 660.84 2840.07 2057.51 575.8 -135.72zm6799.59 -1211.39l-500.9 -334.98 -3815.18 1310.17 422.85 -519.41 -784.36 -3306.35 -847.06 -11.68 2716.56 -1100.58 -583.05 741.54 1234.76 2499.89 879.05 -812.69 115.33 -851.06 1162 2385.15zm10072.49 -2622.38l-474.54 2038.14 -57.5 -853.2c-312.97,318.95 -649.24,553.53 -1008.79,705.8 -359.47,152.18 -727.38,213.94 -1103.74,185.28 -247.54,-18.85 -484,-87.86 -710.57,-208.06 -225.63,-119.16 -425.41,-283.37 -598.14,-492.45 -207.03,-243.28 -360.24,-508.92 -458.68,-798.1 -98.35,-290.11 -136.31,-581.68 -113.96,-874.86 30.88,-405.79 145.27,-770.46 343.26,-1093.16 198.07,-322.7 463.36,-577.93 795.96,-765.85 222.81,-124.97 459.01,-212.06 709.8,-262.31 249.77,-51.44 517.11,-65.77 802.19,-44.01 259.67,19.7 498,78.65 716.04,176.83 218.03,98.27 418.58,237.99 601.64,420.29l210.1 -480.94 179.56 1649.25c-116.43,-199.7 -259.66,-355.55 -430.78,-467.46 -171.03,-112.01 -360.06,-175.3 -565.98,-190.91 -238.42,-18.17 -434.36,37.28 -590.13,165.23 -155.68,128.89 -241.58,307.01 -258.98,535.28 -18.34,241.4 56.47,450.23 224.69,627.23 167.11,177 387.02,276.38 658.97,297.02 166.25,12.71 341.98,-3.49 527,-47.51 184,-45.21 385.48,-118.74 602.58,-221.53zm6143.61 3733.71l-3575.82 -836.91 729.17 -237.74 1346.51 -3059.73 -732.93 -1094.18 3311.21 1437.95 -1391.38 -64.74 -376.61 3002.32 689.85 853.03zm5667.19 3409.48l-109.7 -592.52 -3601.24 -1817.55 667.15 -59.8 1820.2 -2869.5 -582.96 -614.7 2684.31 1177.1 -937.9 99.97 -928.27 2629.13 1195.44 62.35 689.93 -511.47 -896.96 2496.99zm6126.37 1854.48l521.46 -1146.3 -1302.83 783.17 781.37 363.13zm560.02 2898.34l-2436.86 -1211.64 1095.89 -186.13 319.72 -606.16 -750.41 -613.5 -733.52 363.22 77.88 527 -2184.44 -1804.59 851.58 105.27 3119.27 -1942.44 -142.88 -601.81 2456.3 2504.24 -792.63 -352.81 -1172.58 3305.15 292.68 514.2zm3019.89 3198.61c261.03,159.6 515.83,251.22 762.36,275.78 246.78,24.57 470.61,-21.06 671.5,-136.91 175.47,-101.08 313.23,-236.88 412.95,-408.26 99.72,-171.37 159.69,-374.99 182.55,-610.17l-2029.36 879.56zm1526.76 -2315.98l63.89 -975.01 1258.22 2840.93c229.04,519.75 277.4,1005.04 146.97,1457.15 -130.94,451.25 -424.38,808.16 -880.92,1071.32 -567.69,327.13 -1131.2,384.29 -1690.71,171.29 -561.12,-213.26 -1085.73,-683.54 -1574.95,-1410.23l-1230.32 -1841.35 1054 873.16 2853.82 -2187.26zm2834.1 10431.03l1031.49 -722.52 -1520.02 12.88 488.53 709.64zm-989.6 2781.13l-1483.67 -2281.34 1038.56 396.23 583.3 -359.81 -334.98 -909.67 -816.27 -59.46 -200.71 493.48 -964.95 -2664.1 680.03 523.25 3673.58 -89.06 182.55 -590.97 843.98 3404.78 -503.63 -706.39 -2688.75 2251.57 -9.04 591.49z"/>
   <path class="fil0" d="M39399.03 17478.99c-567.12,3924.27 1023.51,11237.09 1262.52,15623.18 -1357.79,-3249.8 -2247.56,-5773.84 -2787.24,-9176.04 -311.37,-1963.13 -487.82,-3866.1 -712.41,-6071.96 -1255.21,83.02 -4262.14,1833.37 -4901.85,2538.7 -190.11,1200.63 1514.05,6218.65 1987.04,7340.25 949.37,2251.69 2086.03,4134.97 3134.13,6298.73 -4757.94,-5596.85 -4881.12,-7475.27 -6897.11,-11786.83 -931.36,56.76 -2811.43,3022.63 -2698.05,3806.76 53.31,368.63 395.14,906.77 574.94,1244.11 1252.77,2351.31 3590.8,5255.02 4795.02,6424.49 -3950.67,-2187.71 -4559.96,-4333.05 -5985.45,-6009.4 -583.19,672.89 -579.07,4831.55 -11.2,5817.08 1559.33,2706.43 12139.39,4300.39 15513.91,4305.15 3097.84,4.36 13751.1,-1610.06 15287.66,-4413.36 630.69,-1150.55 731.46,-4693.07 -139.92,-5564.19 -270.55,223.96 -655.01,1036.9 -1396.24,2023.58 -1100.87,1466.04 -2770.63,2810.92 -4437.45,3531.21 1039.48,-1212.34 1953.33,-2160.3 2820.72,-3206.96 693.99,-837.67 1358.4,-1738.64 2033.5,-2889.05 437.74,-745.89 517.41,-1259.71 -45.32,-2460.84 -318.41,-679.47 -1395.36,-2615.02 -2170.43,-2611.93 -318.45,977.55 -688.5,1834.64 -1100.5,2651.71 -1441.19,2857.52 -3813.71,6816.01 -6067.3,8955.05l3162.82 -6229.09c469.27,-1081.28 2497.23,-6020.44 2358.99,-7226.47 -475.84,-787.86 -3925.91,-2441.89 -4970.42,-2362.22 -48.14,1402.17 -312.51,3009.51 -635.19,4573.48 -394.36,1911.23 -1660.88,7523.01 -3162.41,10517.23 -5.94,-17.88 1019.65,-9188.05 1116.16,-10350.81l380.61 -4582.23c65.78,-661.96 66.92,-736.36 -542.63,-864.95 -1801.98,-379.97 -3985.7,-194.36 -5766.9,155.62zm15602.58 27529.6c-278.4,-628.11 -434.52,-1168.33 -394.37,-2018.44 27.28,-578.3 47.1,-543.94 232.44,-970.88l733.54 -3062.55c72.97,-735.82 69.75,-1883.69 33.72,-2628.9 -528.21,92.28 -383.93,143.1 -797.75,326.66l-637.13 185.21c-710.73,231.93 -321.64,1181.95 -407.35,2728.8 -26.9,486.01 -56.39,638.91 -255.48,1007.14 -290.27,536.5 -134.65,527.98 -260.92,1199.09 -501.34,2665.74 1719.58,3860.17 -1084.63,6330.53 -1307.98,1152.2 -2903.74,-42.73 -4549.06,2207.37 -408.78,617.31 -508.38,874.87 -408.78,964.31 0,0 838.8,-185.21 1265.87,-420.63 -12.84,651.56 -54.81,1092.51 -50.31,2080.36 3.58,789 31.66,1649.81 -21.51,2430.96 0,0 -950.01,470.98 -950.01,470.98l-13.75 -1511.33 -1117.11 215.59 101.04 2347.8 -1114.62 206.84 33.31 -2113.55 -962.35 137.71 21.23 2431.22 -1236.66 126.77 -14.93 -2472.65 -1237.8 -50.32 -71.95 2496.33 -1154.91 -75.68 160.11 -2454.63 -1132.16 -64.24 -206.85 2000.29 -999.83 -184.7 137.34 -2091.27 -756.92 -152.93 -147.5 1308.21c0,0 -1013.35,-468.36 -1013.35,-468.36l-363.5 -4465.63c256.52,4.63 911.54,369.13 1332.8,501.47 74.67,-1539.51 -1569.36,-2416.56 -3058.66,-2733.33 -1682.78,-357.93 -2643.22,-803.29 -3408.17,-2354.77 -587.41,-1191.21 563.64,-1079.87 274.81,-4621.35 -73.5,-870.74 -42.97,-615.49 -336.56,-1155.04 -384.2,-666.49 -97.59,-3253.69 -481.65,-3734.44 -184.97,-220.36 -1151.46,-512 -1456.22,-508.78 -21.13,1077.95 124.05,2625.45 274.77,3676.5 230.16,1330.85 287.42,1056.95 447.67,1325.45 144.01,223.45 328.35,1320.59 373.9,1623.58 187.29,1241.29 -615.23,2223.97 -557.56,3402.2 54.17,1106.26 987.85,1799.25 1525.59,2391.7 859.67,946.93 1085.94,1149.01 2743.49,1293.82 1252.87,109.39 987.08,817.04 1065.35,2825.72 89.56,2298.38 -264.01,3097.94 1494.96,4212.32 2272.01,1439.38 4178.88,1778.12 6465.55,1611.6 1744.81,-127.07 3031.15,-129.25 5287.83,-1639.77 766.22,-512.95 1294.56,-1177.36 1401.4,-1620.63 169.65,-703.28 40.16,-3022.26 98.86,-3982.17 119.29,-1953.83 876.52,-1118.24 2297.88,-1534.37 705.83,-206.85 1665.64,-1416.2 2114.58,-1912.27 832.37,-919.76 985.14,-1505.13 742.27,-3062.92zm1155.95 -1049.78c0,0 549.88,-192.68 948.36,-487.05 1397.01,-1031.59 5273.41,-4008.57 6512.12,-4129.53 853.6,-83.43 1623.57,61.12 2289.12,74.77 2649.13,54.45 3471.47,-3124.84 1157.49,-3820.01 -850.25,-255.52 -1827.67,-239.78 -1997.2,-437.37 -314.43,-366.18 -163.71,-1808.37 -526.17,-2430.85 -306.57,-526.43 -813.45,-630.02 -1321.46,-663.87 -933.31,-62.06 -1951.15,445.32 -2305.86,1360.48 -386.51,997.25 165.51,1689.06 -131.43,2329.65 -375.58,810.26 -2599.96,2547.72 -3717.93,3223.56 -299.5,181.12 -148.91,739.99 -405.97,2415.15 -127.27,829.79 -498.76,1750.08 -501.07,2565.07zm5237.24 14775.88c-28.04,-930.55 -694.9,-1460.07 -1539.24,-1726.12 -363.23,-114.43 -815.76,-102.22 -1769.4,94.33 -1261.98,260.14 -1894.09,-229.35 -2667.78,-816.27 -719.22,-545.75 -3752.32,-2691.1 -4360.2,-2982.51 164.75,2821.36 37.07,2713.11 -548.43,3770.73 4195.58,2742.96 4004.57,2307.68 4278.98,5392.33 119.69,1345.55 1025.45,2546.18 2643.86,2161.72 1896.81,-450.62 840.22,-2890.33 1370.78,-3495.53 168.2,-359.51 944.84,-358.33 1285.94,-469.03 955.91,-310.2 1335.25,-944.35 1305.49,-1929.65zm-33102.77 -1602.57c-756.82,205.43 -2974.12,-970.98 -4063.01,678.05 -852.33,1631.16 960.55,2779.76 2309.95,3326.56 75.04,1452.99 -5.4,3105.65 1602.61,3385.73 1429.58,249.04 1998.99,-989.94 2190.13,-2181.54 360.38,-2246.25 -872.39,-2156.15 4165.23,-5257.58 -102.35,-543.27 -396.18,-823.61 -505.33,-1654.7 -83.67,-637.64 -69.11,-1312.71 -125.1,-1985.5 0,0 -4484.95,3393.2 -5574.48,3688.98zm20959.15 -17172.08c-1308.35,250.58 -3932.89,1119.38 -4864.75,2023.57 -815,790.94 94.49,1931.56 555.28,2299.19 1866.68,1489.82 6011.58,2958.65 6890.91,-168.37 205.8,-731.6 239.41,-2675.9 -1.55,-3283.41 -360.51,-909.22 -1408.21,-1095.34 -2579.89,-870.98zm-15026.87 -110.97c-422.67,147.9 -721.03,425.39 -958.77,730.56 -859,1102.94 -264.74,7873.53 5645.26,4576.06 665.72,-371.45 1492.42,-996.07 1803.75,-1642.33 650.15,-1349.41 -234.75,-1631.79 -1108.04,-2076.37 -922.61,-469.54 -4147.99,-2019.62 -5382.2,-1587.92zm8402.51 8597.65c104.53,298.22 277.53,752.83 397.45,1187.11 233.38,844.84 41.46,1530.22 1322.4,1012.17 642.91,-260.15 577.26,-1215.69 276.22,-2214.08 -419.09,-1390.1 -1307.58,-2975.8 -1713.68,-3213.17 -675.61,-394.86 -1113.08,59.34 -1462.66,645.39 -259.61,435.15 -530.69,1032.36 -787.72,1732.7 -191,520.49 -447.66,1073.32 -514.95,1590.86 -271.59,2089.5 1486.6,1787.28 1631.02,1445.05 322.27,-763.9 454.61,-1446.35 851.92,-2186.03zm-14117.65 -5218.46c0,0 -549.84,-192.69 -948.33,-487.05 -1397.04,-1031.63 -5273.44,-4008.57 -6512.15,-4129.57 -853.6,-83.26 -1623.57,61.15 -2289.12,74.8 -2649.13,54.45 -3471.47,-3124.84 -1157.49,-3820.04 850.25,-255.48 1827.7,-239.78 1997.21,-437.33 314.42,-366.19 163.7,-1808.42 526.02,-2430.85 306.71,-526.44 813.59,-630.02 1321.6,-663.91 933.31,-62.02 1951.15,445.36 2305.86,1360.48 386.52,997.28 -165.51,1689.22 131.43,2329.68 375.58,810.23 2599.96,2547.72 3717.93,3223.57 299.53,181.11 148.91,739.95 405.97,2415.15 127.28,829.78 498.76,1750.07 501.07,2565.07z"/>
  </g>
 </g>
</svg>
